<svg width="1429" height="611" viewBox="0 0 1429 611" fill="none" xmlns="http://www.w3.org/2000/svg">
<circle cx="399" cy="503" r="108" fill="#9530E3"/>
<circle cx="1429" cy="46" r="108" fill="#6F18C9" fill-opacity="0.5"/>
<path fill-rule="evenodd" clip-rule="evenodd" d="M1256 324C1301.84 324 1339 286.84 1339 241C1339 195.16 1301.84 158 1256 158C1210.16 158 1173 195.16 1173 241C1173 286.84 1210.16 324 1256 324ZM1256.5 289C1282.73 289 1304 267.734 1304 241.5C1304 215.266 1282.73 194 1256.5 194C1230.27 194 1209 215.266 1209 241.5C1209 267.734 1230.27 289 1256.5 289Z" fill="#6F18C9" fill-opacity="0.5"/>
<path fill-rule="evenodd" clip-rule="evenodd" d="M197.799 206.002C209.666 188.241 216 167.36 216 146H169.998C169.999 146.167 170 146.333 170 146.5C170 180.466 142.466 208 108.5 208C74.5345 208 47 180.466 47 146.5C47 112.701 74.2647 85.2706 108 85.002V38C86.6397 38 65.759 44.3341 47.9985 56.2013C30.238 68.0685 16.3953 84.9358 8.22106 104.67C0.0467948 124.405 -2.09197 146.12 2.07524 167.07C6.24244 188.02 16.5284 207.263 31.6325 222.368C46.7366 237.472 65.9803 247.758 86.9303 251.925C107.88 256.092 129.595 253.953 149.33 245.779C169.064 237.605 185.932 223.762 197.799 206.002Z" fill="#9530E3"/>
<path fill-rule="evenodd" clip-rule="evenodd" d="M420.535 8.15215C410.761 27.1455 406.84 48.6105 409.266 69.8327L454.97 64.6082C454.95 64.4429 454.93 64.2774 454.911 64.1116C451.054 30.3659 475.283 -0.117579 509.029 -3.97508C542.774 -7.83257 573.258 16.3966 577.115 50.1424C580.954 83.7224 556.981 114.072 523.494 118.17L528.833 164.868C550.055 162.442 570.081 153.778 586.379 139.97C602.677 126.163 614.514 107.832 620.394 87.2974C626.274 66.7623 625.933 44.9447 619.413 24.6036C612.894 4.26245 600.489 -13.6886 583.767 -26.9796C567.045 -40.2705 546.758 -48.3044 525.47 -50.0654C504.183 -51.8263 482.851 -47.2352 464.172 -36.8726C445.494 -26.5099 430.308 -10.8412 420.535 8.15215Z" fill="#9530E3"/>
<path fill-rule="evenodd" clip-rule="evenodd" d="M836.512 246.195C850.286 248.378 864.398 246.428 877.064 240.591L864.494 213.314C864.395 213.36 864.297 213.406 864.198 213.452C844.058 222.733 820.207 213.931 810.925 193.791C801.644 173.651 810.446 149.8 830.586 140.518C850.627 131.282 874.343 139.953 883.721 159.883L911.591 147.039C905.754 134.374 896.292 123.723 884.402 116.435C872.512 109.146 858.728 105.548 844.793 106.093C830.857 106.639 817.397 111.305 806.113 119.501C794.829 127.696 786.229 139.054 781.401 152.138C776.572 165.221 775.731 179.443 778.985 193.004C782.239 206.565 789.441 218.857 799.681 228.325C809.921 237.792 822.738 244.011 836.512 246.195Z" fill="#9530E3"/>
</svg>
