<svg width="1440" height="611" viewBox="0 0 1440 611" fill="none" xmlns="http://www.w3.org/2000/svg">
<rect width="1440" height="550" fill="url(#paint0_linear_194_378)"/>
<circle cx="410" cy="503" r="108" fill="#9530E3"/>
<circle cx="1440" cy="46" r="108" fill="#6F18C9" fill-opacity="0.5"/>
<path fill-rule="evenodd" clip-rule="evenodd" d="M1267 324C1312.84 324 1350 286.84 1350 241C1350 195.16 1312.84 158 1267 158C1221.16 158 1184 195.16 1184 241C1184 286.84 1221.16 324 1267 324ZM1267.5 289C1293.73 289 1315 267.734 1315 241.5C1315 215.266 1293.73 194 1267.5 194C1241.27 194 1220 215.266 1220 241.5C1220 267.734 1241.27 289 1267.5 289Z" fill="#6F18C9" fill-opacity="0.5"/>
<path fill-rule="evenodd" clip-rule="evenodd" d="M208.799 206.002C220.666 188.241 227 167.36 227 146H180.998C180.999 146.167 181 146.333 181 146.5C181 180.466 153.466 208 119.5 208C85.5345 208 58 180.466 58 146.5C58 112.701 85.2647 85.2706 119 85.002V38C97.6397 38 76.759 44.3341 58.9985 56.2013C41.238 68.0685 27.3953 84.9358 19.2211 104.67C11.0468 124.405 8.90803 146.12 13.0752 167.07C17.2424 188.02 27.5284 207.263 42.6325 222.368C57.7366 237.472 76.9803 247.758 97.9303 251.925C118.88 256.092 140.595 253.953 160.33 245.779C180.064 237.605 196.932 223.762 208.799 206.002Z" fill="#9530E3"/>
<path fill-rule="evenodd" clip-rule="evenodd" d="M431.535 8.15215C421.761 27.1455 417.84 48.6105 420.266 69.8327L465.97 64.6082C465.95 64.4429 465.93 64.2774 465.911 64.1116C462.054 30.3659 486.283 -0.117579 520.029 -3.97508C553.774 -7.83257 584.258 16.3966 588.115 50.1424C591.954 83.7224 567.981 114.072 534.494 118.17L539.833 164.868C561.055 162.442 581.081 153.778 597.379 139.97C613.677 126.163 625.514 107.832 631.394 87.2974C637.274 66.7623 636.933 44.9447 630.413 24.6036C623.894 4.26245 611.489 -13.6886 594.767 -26.9796C578.045 -40.2705 557.758 -48.3044 536.47 -50.0654C515.183 -51.8263 493.851 -47.2352 475.172 -36.8726C456.494 -26.5099 441.308 -10.8412 431.535 8.15215Z" fill="#9530E3"/>
<path fill-rule="evenodd" clip-rule="evenodd" d="M847.512 246.195C861.286 248.378 875.398 246.428 888.064 240.591L875.494 213.314C875.395 213.36 875.297 213.406 875.198 213.452C855.058 222.733 831.207 213.931 821.925 193.791C812.644 173.651 821.446 149.8 841.586 140.518C861.627 131.282 885.343 139.953 894.721 159.883L922.591 147.039C916.754 134.374 907.292 123.723 895.402 116.435C883.512 109.146 869.728 105.548 855.793 106.093C841.857 106.639 828.397 111.305 817.113 119.501C805.829 127.696 797.229 139.054 792.401 152.138C787.572 165.221 786.731 179.443 789.985 193.004C793.239 206.565 800.441 218.857 810.681 228.325C820.921 237.792 833.738 244.011 847.512 246.195Z" fill="#9530E3"/>
<defs>
<linearGradient id="paint0_linear_194_378" x1="224" y1="22.9999" x2="1366" y2="550" gradientUnits="userSpaceOnUse">
<stop stop-color="#6F18C9"/>
<stop offset="1" stop-color="#9530E3"/>
</linearGradient>
</defs>
</svg>
