<svg width="160" height="147" viewBox="0 0 160 147" fill="none" xmlns="http://www.w3.org/2000/svg">
<g clip-path="url(#clip0_179_286)">
<path fill-rule="evenodd" clip-rule="evenodd" d="M61.2329 50.9225L76.9561 2.84358V2.83589C77.9622 -0.252094 82.4025 -0.267457 83.4325 2.82053L92.8931 31.1814L63.238 72.8726L82.2009 74.0875L54.8094 121.163L128.893 57.6507L112.282 56.3983L114.402 53.4035H155.75C156.671 53.5649 158.13 53.9721 158.715 55.1091C159.503 56.6529 158.504 58.9342 157.747 59.472L114.746 90.1679C113.552 91.0202 113.044 92.5337 113.505 93.9161C114.617 97.2807 115.73 100.647 116.844 104.014C117.958 107.38 119.072 110.746 120.184 114.111L126.528 133.284C127.011 134.75 127.497 136.215 127.982 137.679C128.468 139.146 128.954 140.611 129.438 142.08C130.461 145.16 126.895 147.733 124.218 145.843L82.1526 116.139C80.9587 115.294 79.3592 115.294 78.1729 116.139L36.3807 145.82C33.7121 147.71 30.1384 145.153 31.145 142.072L47.0317 93.5473C47.4843 92.1649 46.9771 90.6514 45.7754 89.7991L2.66431 59.326C-0.0198947 57.4289 1.34561 53.2499 4.65405 53.2499H57.9947C59.4695 53.2499 60.7805 52.3054 61.2329 50.9225Z" fill="url(#paint0_linear_179_286)"/>
<path d="M76.9561 2.84357L77.1973 2.92363L77.2106 2.88463V2.84357H76.9561ZM76.9561 2.83589L76.7139 2.75605L76.7017 2.79495V2.83589H76.9561ZM92.8931 31.1814L93.1002 31.3305L93.1761 31.224L93.1343 31.0999L92.8931 31.1814ZM63.238 72.8726L63.0309 72.7235L62.7642 73.0989L63.2217 73.1281L63.238 72.8726ZM82.2009 74.0875L82.4203 74.2171L82.6289 73.8585L82.2167 73.8319L82.2009 74.0875ZM54.8094 121.163L54.5901 121.034L53.8308 122.339L54.9748 121.358L54.8094 121.163ZM128.893 57.6506L129.058 57.8453L129.529 57.4417L128.912 57.395L128.893 57.6506ZM112.282 56.3983L112.075 56.2498L111.813 56.6196L112.263 56.6539L112.282 56.3983ZM114.402 53.4035V53.1474H114.271L114.194 53.255L114.402 53.4035ZM155.75 53.4035L155.793 53.1515L155.772 53.1474H155.75V53.4035ZM158.715 55.1091L158.941 54.9918L158.941 54.9913L158.715 55.1091ZM157.747 59.472L157.601 59.263H157.6L157.747 59.472ZM129.438 142.08L129.197 142.16L129.197 142.161L129.438 142.08ZM82.1526 116.139L82.006 116.349H82.0065L82.1526 116.139ZM76.7144 2.7635L60.9911 50.8424L61.4746 51.0026L77.1973 2.92363L76.7144 2.7635ZM76.7017 2.83589V2.84357H77.2106V2.83589H76.7017ZM83.6737 2.73902C82.5658 -0.581946 77.7973 -0.566765 76.7139 2.75605L77.1979 2.91572C78.1276 0.0625613 82.2386 0.047018 83.1913 2.90203L83.6737 2.73902ZM93.1343 31.0999L83.6737 2.73902L83.1913 2.90203L92.6519 31.2629L93.1343 31.0999ZM92.6865 31.0323L63.0309 72.7235L63.4446 73.0216L93.1002 31.3305L92.6865 31.0323ZM63.2217 73.1281L82.1846 74.3431L82.2167 73.8319L63.2543 72.617L63.2217 73.1281ZM81.9811 73.9579L54.5901 121.034L55.0293 121.292L82.4203 74.2171L81.9811 73.9579ZM54.9748 121.358L129.058 57.8453L128.728 57.4555L54.6445 120.968L54.9748 121.358ZM128.912 57.395L112.301 56.1432L112.263 56.6539L128.874 57.9057L128.912 57.395ZM112.49 56.5469L114.609 53.552L114.194 53.255L112.075 56.2498L112.49 56.5469ZM155.75 53.1474H114.402V53.6596H155.75V53.1474ZM158.941 54.9913C158.614 54.3552 158.049 53.9367 157.467 53.6591C156.885 53.381 156.264 53.234 155.793 53.1515L155.706 53.656C156.156 53.7349 156.725 53.8717 157.249 54.1216C157.773 54.3721 158.231 54.726 158.489 55.2269L158.941 54.9913ZM157.894 59.6815C158.124 59.5181 158.35 59.241 158.546 58.9127C158.746 58.5803 158.926 58.1761 159.054 57.7408C159.31 56.8782 159.377 55.8462 158.941 54.9918L158.488 55.2259C158.841 55.9158 158.803 56.7963 158.567 57.5948C158.45 57.9902 158.287 58.3539 158.111 58.6484C157.932 58.9475 157.749 59.1575 157.601 59.263L157.894 59.6815ZM114.893 90.3763L157.894 59.681L157.6 59.263L114.598 89.9589L114.893 90.3763ZM113.746 93.8352C113.322 92.5629 113.788 91.1656 114.893 90.3763L114.598 89.9589C113.316 90.8747 112.766 92.505 113.264 93.9975L113.746 93.8352ZM117.086 103.933C115.972 100.566 114.858 97.1998 113.746 93.8352L113.263 93.997C114.375 97.3616 115.489 100.728 116.603 104.094L117.086 103.933ZM120.426 114.03C119.314 110.666 118.2 107.299 117.086 103.933L116.603 104.094C117.717 107.461 118.831 110.827 119.943 114.192L120.426 114.03ZM126.769 133.203L120.426 114.03L119.943 114.192L126.286 133.365L126.769 133.203ZM128.224 137.598C127.738 136.134 127.253 134.669 126.769 133.203L126.286 133.365C126.77 134.831 127.256 136.296 127.741 137.76L128.224 137.598ZM129.68 141.999C129.196 140.53 128.71 139.065 128.224 137.598L127.741 137.76C128.227 139.226 128.713 140.692 129.197 142.16L129.68 141.999ZM124.072 146.053C126.932 148.073 130.786 145.333 129.68 141.998L129.197 142.161C130.135 144.988 126.857 147.394 124.365 145.634L124.072 146.053ZM82.0065 116.349L124.072 146.053L124.365 145.634L82.2986 115.929L82.0065 116.349ZM78.32 116.348C79.4177 115.566 80.9002 115.566 82.006 116.349L82.2991 115.93C81.0177 115.023 79.3007 115.022 78.0264 115.93L78.32 116.348ZM36.5271 146.03L78.32 116.348L78.0264 115.93L36.234 145.611L36.5271 146.03ZM30.9033 141.992C29.8136 145.327 33.6754 148.049 36.5271 146.03L36.2343 145.611C33.7489 147.371 30.4631 144.978 31.3867 142.152L30.9033 141.992ZM46.79 93.4674L30.9033 141.992L31.3867 142.152L47.2734 93.6277L46.79 93.4674ZM45.6288 90.008C46.741 90.7973 47.2067 92.1941 46.79 93.4674L47.2734 93.6277C47.7618 92.1357 47.2131 90.5059 45.9221 89.5896L45.6288 90.008ZM2.51806 59.5355L45.6292 90.0086L45.9221 89.5896L2.81055 59.1165L2.51806 59.5355ZM4.65405 52.9938C1.11054 52.9938 -0.380574 57.4867 2.51806 59.5355L2.81055 59.1165C0.340775 57.371 1.58069 53.5059 4.65405 53.5059V52.9938ZM57.9947 52.9938H4.65405V53.5059H57.9947V52.9938ZM60.9911 50.8424C60.5738 52.118 59.3621 52.9938 57.9947 52.9938V53.5059C59.5769 53.5059 60.9871 52.4928 61.4746 51.0026L60.9911 50.8424Z" fill="#C6C6C6"/>
</g>
<defs>
<linearGradient id="paint0_linear_179_286" x1="59.0023" y1="211.744" x2="169.843" y2="140.858" gradientUnits="userSpaceOnUse">
<stop stop-color="#FF8900"/>
<stop offset="0.901042" stop-color="#FECE2A"/>
</linearGradient>
<clipPath id="clip0_179_286">
<rect width="158.779" height="147" fill="white" transform="translate(0.732422)"/>
</clipPath>
</defs>
</svg>
