<svg width="619" height="340" viewBox="0 0 619 340" fill="none" xmlns="http://www.w3.org/2000/svg">
<path d="M104.332 243.664C104.332 255.888 98.38 262 86.476 262H70.732C65.676 262 63.148 259.44 63.148 254.32V254.032C63.276 248.72 65.836 246.064 70.828 246.064H87.34C88.428 246.064 89.228 245.776 89.74 245.2C90.252 244.56 90.508 243.888 90.508 243.184C90.508 242.48 90.252 241.84 89.74 241.264C89.228 240.624 88.428 240.304 87.34 240.304H79.18C67.916 240.304 62.284 234.512 62.284 222.928C62.284 210.704 68.3 204.592 80.332 204.592H93.004C98.06 204.592 100.588 207.152 100.588 212.272V212.56C100.46 217.872 97.9 220.528 92.908 220.528H79.276C78.188 220.528 77.388 220.848 76.876 221.488C76.364 222.064 76.108 222.704 76.108 223.408C76.108 224.112 76.364 224.784 76.876 225.424C77.388 226 78.188 226.288 79.276 226.288H87.436C98.7 226.288 104.332 232.08 104.332 243.664ZM137.85 254.032C137.85 256.592 137.05 258.544 135.45 259.888C133.914 261.232 132.058 261.904 129.882 261.904C127.77 261.904 125.914 261.232 124.314 259.888C122.778 258.544 122.01 256.592 122.01 254.032V220.528H116.442C113.946 220.528 111.994 219.76 110.586 218.224C109.178 216.624 108.474 214.736 108.474 212.56C108.474 210.384 109.178 208.528 110.586 206.992C111.994 205.392 113.946 204.592 116.442 204.592H143.226C145.722 204.592 147.674 205.392 149.082 206.992C150.49 208.528 151.194 210.384 151.194 212.56C151.194 214.736 150.49 216.624 149.082 218.224C147.674 219.76 145.722 220.528 143.226 220.528H137.85V254.032ZM169.011 238.384H176.691L173.139 228.112L169.011 238.384ZM181.011 250.864H164.019L161.619 257.008C160.915 258.8 159.923 260.112 158.643 260.944C157.427 261.712 156.083 262.096 154.611 262.096C153.523 262.096 152.467 261.936 151.443 261.616C150.483 261.232 149.587 260.72 148.755 260.08C147.923 259.376 147.251 258.576 146.739 257.68C146.291 256.784 146.067 255.76 146.067 254.608C146.067 253.456 146.291 252.4 146.739 251.44L165.651 209.68C166.483 207.888 167.603 206.544 169.011 205.648C170.419 204.752 171.859 204.304 173.331 204.304C174.803 204.304 176.211 204.752 177.555 205.648C178.963 206.544 180.019 207.888 180.723 209.68L198.099 251.44C198.547 252.4 198.771 253.456 198.771 254.608C198.771 255.696 198.515 256.72 198.003 257.68C197.555 258.576 196.915 259.376 196.083 260.08C195.251 260.72 194.323 261.232 193.299 261.616C192.275 261.936 191.251 262.096 190.227 262.096C188.755 262.096 187.379 261.712 186.099 260.944C184.819 260.112 183.859 258.8 183.219 257.008L181.011 250.864ZM223.54 241.744C221.94 239.568 221.14 237.264 221.14 234.832C221.14 233.296 221.428 232.144 222.004 231.376C222.58 230.544 223.316 229.936 224.212 229.552C225.108 229.104 226.068 228.816 227.092 228.688C228.116 228.496 229.076 228.272 229.972 228.016C230.868 227.696 231.636 227.248 232.276 226.672C232.916 226.096 233.268 225.2 233.332 223.984C233.332 221.104 231.668 219.664 228.34 219.664H219.796V253.84C219.796 259.28 217.14 262 211.828 262C209.14 262 207.124 261.328 205.78 259.984C204.5 258.576 203.86 256.592 203.86 254.032V212.56C203.86 207.248 206.42 204.592 211.54 204.592H228.628C231.956 204.592 234.836 205.104 237.268 206.128C239.764 207.088 241.812 208.4 243.412 210.064C245.012 211.664 246.196 213.52 246.964 215.632C247.732 217.68 248.116 219.792 248.116 221.968C248.116 225.232 247.284 228.304 245.62 231.184C244.02 234.064 241.62 236.24 238.42 237.712L245.236 248.56C246.26 250.224 246.772 251.92 246.772 253.648C246.772 254.8 246.548 255.888 246.1 256.912C245.652 257.936 245.044 258.832 244.276 259.6C243.572 260.368 242.74 260.976 241.78 261.424C240.82 261.808 239.828 262 238.804 262C237.652 262 236.5 261.68 235.348 261.04C234.26 260.336 233.3 259.248 232.468 257.776L223.54 241.744ZM289.265 253.84C289.265 259.28 286.609 262 281.297 262C278.609 262 276.593 261.328 275.249 259.984C273.969 258.576 273.329 256.592 273.329 254.032V212.56C273.329 207.248 275.889 204.592 281.009 204.592H297.137C300.593 204.592 303.569 205.136 306.065 206.224C308.625 207.248 310.705 208.624 312.305 210.352C313.969 212.08 315.185 214.064 315.953 216.304C316.785 218.48 317.201 220.72 317.201 223.024C317.201 225.328 316.817 227.568 316.049 229.744C315.345 231.92 314.257 233.872 312.785 235.6C311.377 237.264 309.617 238.64 307.505 239.728C305.457 240.752 303.089 241.264 300.401 241.264H297.809C293.009 241.264 290.609 239.12 290.609 234.832C290.609 233.296 290.897 232.144 291.473 231.376C292.049 230.544 292.785 229.936 293.681 229.552C294.577 229.104 295.537 228.816 296.561 228.688C297.585 228.496 298.545 228.272 299.441 228.016C300.337 227.696 301.105 227.248 301.745 226.672C302.385 226.096 302.737 225.2 302.801 223.984C302.801 221.104 301.137 219.664 297.809 219.664H289.265V253.84ZM320.46 233.104C320.46 229.072 321.228 225.264 322.764 221.68C324.3 218.096 326.38 214.992 329.004 212.368C331.628 209.68 334.732 207.568 338.316 206.032C341.9 204.496 345.708 203.728 349.74 203.728C353.772 203.728 357.58 204.496 361.164 206.032C364.748 207.568 367.852 209.68 370.476 212.368C373.164 214.992 375.276 218.096 376.812 221.68C378.348 225.264 379.116 229.072 379.116 233.104C379.116 237.136 378.348 240.944 376.812 244.528C375.276 248.112 373.164 251.216 370.476 253.84C367.852 256.464 364.748 258.544 361.164 260.08C357.58 261.616 353.772 262.384 349.74 262.384C345.708 262.384 341.9 261.616 338.316 260.08C334.732 258.544 331.628 256.464 329.004 253.84C326.38 251.216 324.3 248.112 322.764 244.528C321.228 240.944 320.46 237.136 320.46 233.104ZM336.588 233.296C336.588 235.152 336.908 236.88 337.548 238.48C338.252 240.08 339.212 241.488 340.428 242.704C341.644 243.92 343.052 244.88 344.652 245.584C346.252 246.224 347.98 246.544 349.836 246.544C351.692 246.544 353.42 246.224 355.02 245.584C356.684 244.88 358.092 243.92 359.244 242.704C360.46 241.488 361.42 240.08 362.124 238.48C362.828 236.88 363.18 235.152 363.18 233.296C363.18 231.44 362.828 229.712 362.124 228.112C361.42 226.448 360.46 225.04 359.244 223.888C358.092 222.672 356.684 221.712 355.02 221.008C353.42 220.304 351.692 219.952 349.836 219.952C347.98 219.952 346.252 220.304 344.652 221.008C343.052 221.712 341.644 222.672 340.428 223.888C339.212 225.04 338.252 226.448 337.548 228.112C336.908 229.712 336.588 231.44 336.588 233.296ZM439.335 209.68C439.847 207.76 440.711 206.384 441.927 205.552C443.143 204.656 444.487 204.208 445.959 204.208C446.919 204.208 447.879 204.4 448.839 204.784C449.799 205.104 450.663 205.616 451.431 206.32C452.199 206.96 452.807 207.76 453.255 208.72C453.767 209.68 454.023 210.736 454.023 211.888C454.023 212.72 453.863 213.68 453.543 214.768L440.007 256.72C439.431 258.576 438.407 259.952 436.935 260.848C435.527 261.744 434.023 262.192 432.423 262.192C430.759 262.192 429.191 261.744 427.719 260.848C426.311 259.888 425.287 258.512 424.647 256.72L417.351 235.6L410.535 256.72C409.959 258.576 408.935 259.952 407.463 260.848C406.055 261.744 404.551 262.192 402.951 262.192C401.287 262.192 399.719 261.744 398.247 260.848C396.839 259.888 395.815 258.512 395.175 256.72L380.679 214.576C380.359 213.488 380.199 212.56 380.199 211.792C380.199 210.64 380.423 209.616 380.871 208.72C381.383 207.76 382.023 206.96 382.791 206.32C383.559 205.616 384.423 205.104 385.383 204.784C386.343 204.4 387.335 204.208 388.359 204.208C389.831 204.208 391.175 204.656 392.391 205.552C393.671 206.384 394.567 207.76 395.079 209.68L402.855 237.712L409.863 209.68C410.375 207.824 411.303 206.416 412.647 205.456C414.055 204.496 415.559 204.016 417.159 204.016C418.759 204.016 420.263 204.496 421.671 205.456C423.079 206.416 424.039 207.824 424.551 209.68L432.327 237.712L439.335 209.68ZM468.324 262C463.076 262 460.452 259.344 460.452 254.032V212.56C460.452 207.248 463.076 204.592 468.324 204.592H495.204C497.7 204.592 499.652 205.392 501.06 206.992C502.468 208.528 503.172 210.384 503.172 212.56C503.172 214.736 502.468 216.624 501.06 218.224C499.652 219.76 497.7 220.528 495.204 220.528H476.196V225.328H491.364C493.86 225.328 495.812 226.128 497.22 227.728C498.628 229.264 499.332 231.12 499.332 233.296C499.332 235.472 498.628 237.36 497.22 238.96C495.812 240.496 493.86 241.264 491.364 241.264H476.196V246.064H495.204C497.7 246.064 499.652 246.864 501.06 248.464C502.468 250 503.172 251.856 503.172 254.032C503.172 256.208 502.468 258.096 501.06 259.696C499.652 261.232 497.7 262 495.204 262H468.324ZM529.353 241.744C527.753 239.568 526.953 237.264 526.953 234.832C526.953 233.296 527.241 232.144 527.817 231.376C528.393 230.544 529.129 229.936 530.025 229.552C530.921 229.104 531.881 228.816 532.905 228.688C533.929 228.496 534.889 228.272 535.785 228.016C536.681 227.696 537.449 227.248 538.089 226.672C538.729 226.096 539.081 225.2 539.145 223.984C539.145 221.104 537.481 219.664 534.153 219.664H525.609V253.84C525.609 259.28 522.953 262 517.641 262C514.953 262 512.937 261.328 511.593 259.984C510.313 258.576 509.673 256.592 509.673 254.032V212.56C509.673 207.248 512.233 204.592 517.353 204.592H534.441C537.769 204.592 540.649 205.104 543.081 206.128C545.577 207.088 547.625 208.4 549.225 210.064C550.825 211.664 552.009 213.52 552.777 215.632C553.545 217.68 553.929 219.792 553.929 221.968C553.929 225.232 553.097 228.304 551.433 231.184C549.833 234.064 547.433 236.24 544.233 237.712L551.049 248.56C552.073 250.224 552.585 251.92 552.585 253.648C552.585 254.8 552.361 255.888 551.913 256.912C551.465 257.936 550.857 258.832 550.089 259.6C549.385 260.368 548.553 260.976 547.593 261.424C546.633 261.808 545.641 262 544.617 262C543.465 262 542.313 261.68 541.161 261.04C540.073 260.336 539.113 259.248 538.281 257.776L529.353 241.744Z" fill="white"/>
<rect y="279" width="618" height="4" fill="#D9D9D9"/>
<path d="M236.676 327H233.072V319.793H212.963V316.207H233.072V305.396H220.152C218.922 305.396 217.762 305.637 216.672 306.117C215.582 306.586 214.633 307.23 213.824 308.051C213.016 308.859 212.371 309.809 211.891 310.898C211.422 311.988 211.188 313.154 211.188 314.396V327H207.584V314.396C207.584 313.236 207.73 312.123 208.023 311.057C208.328 309.979 208.75 308.977 209.289 308.051C209.84 307.113 210.496 306.264 211.258 305.502C212.031 304.729 212.881 304.066 213.807 303.516C214.744 302.965 215.746 302.543 216.812 302.25C217.879 301.945 218.992 301.793 220.152 301.793H236.676V327ZM269.107 327H252.883C251.137 327 249.549 326.672 248.119 326.016C246.689 325.359 245.465 324.463 244.445 323.326C243.438 322.189 242.658 320.854 242.107 319.318C241.557 317.783 241.281 316.143 241.281 314.396C241.281 312.662 241.557 311.033 242.107 309.51C242.658 307.975 243.438 306.639 244.445 305.502C245.465 304.354 246.689 303.451 248.119 302.795C249.549 302.127 251.137 301.793 252.883 301.793H269.107V305.396H252.883C251.641 305.396 250.521 305.637 249.525 306.117C248.541 306.586 247.703 307.23 247.012 308.051C246.332 308.859 245.805 309.809 245.43 310.898C245.066 311.988 244.885 313.154 244.885 314.396C244.885 315.639 245.066 316.811 245.43 317.912C245.805 319.002 246.332 319.957 247.012 320.777C247.703 321.586 248.541 322.225 249.525 322.693C250.521 323.162 251.641 323.396 252.883 323.396H265.504V316.207H250.246V312.604H269.107V327ZM300.467 327H274.398V301.793H300.467V305.396H278.002V323.396H300.467V327ZM297.408 316.207H279.795V312.604H297.408V316.207ZM308.553 327H304.949V301.793H306.742C307.914 301.793 309.156 301.945 310.469 302.25C311.793 302.555 313.141 302.994 314.512 303.568C315.883 304.143 317.248 304.84 318.607 305.66C319.979 306.469 321.303 307.389 322.58 308.42C323.857 309.451 325.059 310.576 326.184 311.795C327.309 313.002 328.316 314.291 329.207 315.662V301.793H332.811V327H329.207C329.207 325.148 328.885 323.367 328.24 321.656C327.596 319.934 326.734 318.311 325.656 316.787C324.578 315.264 323.336 313.863 321.93 312.586C320.523 311.297 319.053 310.166 317.518 309.193C315.994 308.221 314.459 307.424 312.912 306.803C311.365 306.17 309.912 305.748 308.553 305.537V327ZM365.26 327H349.035C347.289 327 345.701 326.672 344.271 326.016C342.842 325.359 341.617 324.463 340.598 323.326C339.59 322.189 338.811 320.854 338.26 319.318C337.709 317.783 337.434 316.143 337.434 314.396C337.434 312.662 337.709 311.033 338.26 309.51C338.811 307.975 339.59 306.639 340.598 305.502C341.617 304.354 342.842 303.451 344.271 302.795C345.701 302.127 347.289 301.793 349.035 301.793H365.26V305.396H349.035C347.793 305.396 346.674 305.637 345.678 306.117C344.693 306.586 343.855 307.23 343.164 308.051C342.484 308.859 341.957 309.809 341.582 310.898C341.219 311.988 341.037 313.154 341.037 314.396C341.037 315.639 341.219 316.811 341.582 317.912C341.957 319.002 342.484 319.957 343.164 320.777C343.855 321.586 344.693 322.225 345.678 322.693C346.674 323.162 347.793 323.396 349.035 323.396H365.26V327ZM373.24 327H369.637V301.793H373.24V327ZM407.957 327H404.354V319.793H384.244V316.207H404.354V305.396H391.434C390.203 305.396 389.043 305.637 387.953 306.117C386.863 306.586 385.914 307.23 385.105 308.051C384.297 308.859 383.652 309.809 383.172 310.898C382.703 311.988 382.469 313.154 382.469 314.396V327H378.865V314.396C378.865 313.236 379.012 312.123 379.305 311.057C379.609 309.979 380.031 308.977 380.57 308.051C381.121 307.113 381.777 306.264 382.539 305.502C383.312 304.729 384.162 304.066 385.088 303.516C386.025 302.965 387.027 302.543 388.094 302.25C389.16 301.945 390.273 301.793 391.434 301.793H407.957V327Z" fill="white"/>
<g clip-path="url(#clip0_157_404)">
<path fill-rule="evenodd" clip-rule="evenodd" d="M291.233 74.9225L306.956 26.8436V26.8359C307.962 23.7479 312.402 23.7325 313.433 26.8205L322.893 55.1814L293.238 96.8726L312.201 98.0875L284.809 145.163L358.893 81.6507L342.282 80.3983L344.402 77.4035H385.75C386.671 77.5649 388.13 77.9721 388.715 79.1091C389.503 80.6529 388.504 82.9342 387.747 83.472L344.746 114.168C343.552 115.02 343.044 116.534 343.505 117.916C344.617 121.281 345.73 124.647 346.844 128.014C347.958 131.38 349.072 134.746 350.184 138.111L356.528 157.284C357.011 158.75 357.497 160.215 357.982 161.679C358.468 163.146 358.954 164.611 359.438 166.08C360.461 169.16 356.895 171.733 354.218 169.843L312.153 140.139C310.959 139.294 309.359 139.294 308.173 140.139L266.381 169.82C263.712 171.71 260.138 169.153 261.145 166.072L277.032 117.547C277.484 116.165 276.977 114.651 275.775 113.799L232.664 83.326C229.98 81.4289 231.346 77.2499 234.654 77.2499H287.995C289.47 77.2499 290.78 76.3054 291.233 74.9225Z" fill="url(#paint0_linear_157_404)"/>
<path d="M306.956 26.8433L307.197 26.9234L307.211 26.8844V26.8433H306.956ZM306.956 26.8356L306.714 26.7558L306.702 26.7947V26.8356H306.956ZM322.893 55.1812L323.1 55.3302L323.176 55.2238L323.134 55.0996L322.893 55.1812ZM293.238 96.8723L293.031 96.7233L292.764 97.0987L293.222 97.1279L293.238 96.8723ZM312.201 98.0872L312.42 98.2168L312.629 97.8583L312.217 97.8316L312.201 98.0872ZM284.809 145.163L284.59 145.034L283.831 146.339L284.975 145.358L284.809 145.163ZM358.893 81.6504L359.058 81.845L359.529 81.4414L358.912 81.3948L358.893 81.6504ZM342.282 80.3981L342.075 80.2495L341.813 80.6193L342.263 80.6537L342.282 80.3981ZM344.402 77.4033V77.1472H344.271L344.194 77.2547L344.402 77.4033ZM385.75 77.4033L385.793 77.1513L385.772 77.1472H385.75V77.4033ZM388.715 79.1089L388.941 78.9916L388.941 78.9911L388.715 79.1089ZM387.747 83.4718L387.601 83.2628H387.6L387.747 83.4718ZM359.438 166.08L359.197 166.16L359.197 166.161L359.438 166.08ZM312.153 140.139L312.006 140.348H312.007L312.153 140.139ZM306.714 26.7633L290.991 74.8422L291.475 75.0024L307.197 26.9234L306.714 26.7633ZM306.702 26.8356V26.8433H307.211V26.8356H306.702ZM313.674 26.7388C312.566 23.4178 307.797 23.433 306.714 26.7558L307.198 26.9155C308.128 24.0623 312.239 24.0468 313.191 26.9018L313.674 26.7388ZM323.134 55.0996L313.674 26.7388L313.191 26.9018L322.652 55.2627L323.134 55.0996ZM322.686 55.0321L293.031 96.7233L293.445 97.0214L323.1 55.3302L322.686 55.0321ZM293.222 97.1279L312.185 98.3428L312.217 97.8316L293.254 96.6167L293.222 97.1279ZM311.981 97.9576L284.59 145.034L285.029 145.292L312.42 98.2168L311.981 97.9576ZM284.975 145.358L359.058 81.845L358.728 81.4552L284.645 144.968L284.975 145.358ZM358.912 81.3948L342.301 80.143L342.263 80.6537L358.874 81.9055L358.912 81.3948ZM342.49 80.5466L344.609 77.5518L344.194 77.2547L342.075 80.2495L342.49 80.5466ZM385.75 77.1472H344.402V77.6594H385.75V77.1472ZM388.941 78.9911C388.614 78.3549 388.049 77.9365 387.467 77.6589C386.885 77.3807 386.264 77.2337 385.793 77.1513L385.706 77.6558C386.156 77.7347 386.725 77.8714 387.249 78.1214C387.773 78.3718 388.231 78.7258 388.489 79.2267L388.941 78.9911ZM387.894 83.6812C388.124 83.5179 388.35 83.2408 388.546 82.9124C388.746 82.58 388.926 82.1759 389.054 81.7405C389.31 80.878 389.377 79.8459 388.941 78.9916L388.488 79.2257C388.841 79.9156 388.803 80.796 388.567 81.5946C388.45 81.99 388.287 82.3536 388.111 82.6481C387.932 82.9473 387.749 83.1573 387.601 83.2628L387.894 83.6812ZM344.893 114.376L387.894 83.6807L387.6 83.2628L344.598 113.959L344.893 114.376ZM343.746 117.835C343.322 116.563 343.788 115.165 344.893 114.376L344.598 113.959C343.316 114.874 342.766 116.505 343.264 117.997L343.746 117.835ZM347.086 127.932C345.972 124.566 344.858 121.2 343.746 117.835L343.263 117.997C344.375 121.361 345.489 124.728 346.603 128.094L347.086 127.932ZM350.426 138.03C349.314 134.666 348.2 131.299 347.086 127.932L346.603 128.094C347.717 131.461 348.831 134.827 349.943 138.192L350.426 138.03ZM356.769 157.203L350.426 138.03L349.943 138.192L356.286 157.365L356.769 157.203ZM358.224 161.598C357.738 160.134 357.253 158.669 356.769 157.203L356.286 157.365C356.77 158.831 357.256 160.296 357.741 161.76L358.224 161.598ZM359.68 165.999C359.196 164.53 358.71 163.064 358.224 161.598L357.741 161.76C358.227 163.226 358.713 164.692 359.197 166.16L359.68 165.999ZM354.072 170.053C356.932 172.073 360.786 169.333 359.68 165.998L359.197 166.161C360.135 168.987 356.857 171.394 354.365 169.634L354.072 170.053ZM312.007 140.348L354.072 170.053L354.365 169.634L312.299 139.929L312.007 140.348ZM308.32 140.348C309.418 139.566 310.9 139.565 312.006 140.348L312.299 139.929C311.018 139.022 309.301 139.022 308.026 139.929L308.32 140.348ZM266.527 170.03L308.32 140.348L308.026 139.929L266.234 169.611L266.527 170.03ZM260.903 165.991C259.814 169.326 263.675 172.049 266.527 170.03L266.234 169.611C263.749 171.371 260.463 168.978 261.387 166.152L260.903 165.991ZM276.79 117.467L260.903 165.991L261.387 166.152L277.273 117.627L276.79 117.467ZM275.629 114.008C276.741 114.797 277.207 116.194 276.79 117.467L277.273 117.627C277.762 116.135 277.213 114.506 275.922 113.589L275.629 114.008ZM232.518 83.5353L275.629 114.008L275.922 113.589L232.811 83.1163L232.518 83.5353ZM234.654 76.9935C231.111 76.9935 229.619 81.4865 232.518 83.5353L232.811 83.1163C230.341 81.3707 231.581 77.5057 234.654 77.5057V76.9935ZM287.995 76.9935H234.654V77.5057H287.995V76.9935ZM290.991 74.8422C290.574 76.1177 289.362 76.9935 287.995 76.9935V77.5057C289.577 77.5057 290.987 76.4926 291.475 75.0024L290.991 74.8422Z" fill="#C6C6C6"/>
</g>
<defs>
<linearGradient id="paint0_linear_157_404" x1="289.002" y1="235.744" x2="399.843" y2="164.858" gradientUnits="userSpaceOnUse">
<stop stop-color="#FF8900"/>
<stop offset="0.901042" stop-color="#FECE2A"/>
</linearGradient>
<clipPath id="clip0_157_404">
<rect width="158.779" height="147" fill="white" transform="translate(230.732 24)"/>
</clipPath>
</defs>
</svg>
